{
  "version": "1.1.6",
  "modules": [
    {
      "id": 1,
      "plugin": "Core",
      "version": "1.1.6",
      "model": "AudioInterface",
      "params": [],
      "leftModuleId": 11,
      "data": {
        "audio": {
          "driver": 7,
          "deviceName": "MOTU M Series",
          "offset": 0,
          "maxChannels": 8,
          "sampleRate": 44100,
          "blockSize": 512
        }
      },
      "pos": [
        47,
        0
      ]
    },
    {
      "id": 2,
      "plugin": "Fundamental",
      "version": "1.4.0",
      "model": "VCMixer",
      "params": [
        {
          "id": 0,
          "value": 1.0
        },
        {
          "id": 1,
          "value": 1.0
        },
        {
          "id": 2,
          "value": 1.0
        },
        {
          "id": 3,
          "value": 1.0
        },
        {
          "id": 4,
          "value": 1.0
        }
      ],
      "leftModuleId": 13,
      "rightModuleId": 11,
      "pos": [
        29,
        0
      ]
    },
    {
      "id": 4,
      "plugin": "Fundamental",
      "version": "1.4.0",
      "model": "Scope",
      "params": [
        {
          "id": 0,
          "value": 0.0
        },
        {
          "id": 1,
          "value": 0.0
        },
        {
          "id": 2,
          "value": 0.0
        },
        {
          "id": 3,
          "value": 0.0
        },
        {
          "id": 4,
          "value": 14.0
        },
        {
          "id": 5,
          "value": 0.0
        },
        {
          "id": 6,
          "value": 0.0
        },
        {
          "id": 7,
          "value": 0.0
        }
      ],
      "rightModuleId": 12,
      "data": {
        "lissajous": 0,
        "external": 0
      },
      "pos": [
        0,
        0
      ]
    },
    {
      "id": 11,
      "plugin": "Fundamental",
      "version": "1.4.0",
      "model": "Delay",
      "params": [
        {
          "id": 0,
          "value": 0.24999997
        },
        {
          "id": 1,
          "value": 0.5
        },
        {
          "id": 2,
          "value": 0.5
        },
        {
          "id": 3,
          "value": 1.0
        }
      ],
      "leftModuleId": 2,
      "rightModuleId": 1,
      "pos": [
        39,
        0
      ]
    },
    {
      "id": 12,
      "plugin": "Fundamental",
      "version": "1.4.0",
      "model": "VCF",
      "params": [
        {
          "id": 0,
          "value": 0.0
        },
        {
          "id": 1,
          "value": 0.5
        },
        {
          "id": 2,
          "value": 0.36899972
        },
        {
          "id": 3,
          "value": 1.0
        },
        {
          "id": 4,
          "value": 0.0
        }
      ],
      "leftModuleId": 4,
      "rightModuleId": 13,
      "pos": [
        13,
        0
      ]
    },
    {
      "id": 13,
      "plugin": "Fundamental",
      "version": "1.4.0",
      "model": "ADSR",
      "params": [
        {
          "id": 0,
          "value": 0.0
        },
        {
          "id": 1,
          "value": 0.55905509
        },
        {
          "id": 2,
          "value": 0.574803174
        },
        {
          "id": 3,
          "value": 0.574803174
        }
      ],
      "leftModuleId": 12,
      "rightModuleId": 2,
      "pos": [
        21,
        0
      ]
    }
  ],
  "cables": [
    {
      "id": 24,
      "outputModuleId": 2,
      "outputId": 0,
      "inputModuleId": 11,
      "inputId": 4,
      "color": "#0c8e15"
    },
    {
      "id": 25,
      "outputModuleId": 11,
      "outputId": 0,
      "inputModuleId": 1,
      "inputId": 0,
      "color": "#c91847"
    },
    {
      "id": 26,
      "outputModuleId": 11,
      "outputId": 0,
      "inputModuleId": 1,
      "inputId": 1,
      "color": "#0986ad"
    },
    {
      "id": 30,
      "outputModuleId": 13,
      "outputId": 0,
      "inputModuleId": 2,
      "inputId": 5,
      "color": "#0986ad"
    },
    {
      "id": 29,
      "outputModuleId": 12,
      "outputId": 0,
      "inputModuleId": 2,
      "inputId": 1,
      "color": "#c91847"
    }
  ]
}