{
  "version": "1.1.6",
  "modules": [
    {
      "id": 1,
      "plugin": "Core",
      "version": "1.1.6",
      "model": "AudioInterface",
      "params": [],
      "leftModuleId": 90,
      "data": {
        "audio": {
          "driver": 7,
          "deviceName": "MOTU M Series",
          "offset": 0,
          "maxChannels": 8,
          "sampleRate": 44100,
          "blockSize": 256
        }
      },
      "pos": [
        57,
        0
      ]
    },
    {
      "id": 2,
      "plugin": "Fundamental",
      "version": "1.4.0",
      "model": "VCMixer",
      "params": [
        {
          "id": 0,
          "value": 1.0
        },
        {
          "id": 1,
          "value": 1.04674077
        },
        {
          "id": 2,
          "value": 1.29172254
        },
        {
          "id": 3,
          "value": 1.0
        },
        {
          "id": 4,
          "value": 1.0
        }
      ],
      "leftModuleId": 88,
      "rightModuleId": 95,
      "pos": [
        28,
        1
      ]
    },
    {
      "id": 3,
      "plugin": "Fundamental",
      "version": "1.4.0",
      "model": "VCO",
      "params": [
        {
          "id": 0,
          "value": 1.0
        },
        {
          "id": 1,
          "value": 1.0
        },
        {
          "id": 2,
          "value": -24.3762989
        },
        {
          "id": 3,
          "value": 0.0
        },
        {
          "id": 4,
          "value": 0.0
        },
        {
          "id": 5,
          "value": 0.5
        },
        {
          "id": 6,
          "value": 0.0
        }
      ],
      "rightModuleId": 88,
      "pos": [
        8,
        1
      ]
    },
    {
      "id": 4,
      "plugin": "Fundamental",
      "version": "1.4.0",
      "model": "VCF",
      "params": [
        {
          "id": 0,
          "value": 0.409448802
        },
        {
          "id": 1,
          "value": 0.5
        },
        {
          "id": 2,
          "value": 0.234000027
        },
        {
          "id": 3,
          "value": 1.0
        },
        {
          "id": 4,
          "value": 0.0
        }
      ],
      "rightModuleId": 6,
      "pos": [
        11,
        0
      ]
    },
    {
      "id": 5,
      "plugin": "Core",
      "version": "1.1.6",
      "model": "MIDIToCVInterface",
      "params": [],
      "data": {
        "channels": 1,
        "polyMode": 0,
        "clockDivision": 24,
        "lastPitch": 8192,
        "lastMod": 0,
        "midi": {
          "driver": 4,
          "deviceName": "Arturia KeyStep 32 1",
          "channel": -1
        }
      },
      "pos": [
        0,
        0
      ]
    },
    {
      "id": 6,
      "plugin": "Fundamental",
      "version": "1.4.0",
      "model": "ADSR",
      "params": [
        {
          "id": 0,
          "value": 0.0
        },
        {
          "id": 1,
          "value": 0.275590539
        },
        {
          "id": 2,
          "value": 0.574803174
        },
        {
          "id": 3,
          "value": 0.196850389
        }
      ],
      "leftModuleId": 4,
      "rightModuleId": 7,
      "pos": [
        19,
        0
      ]
    },
    {
      "id": 7,
      "plugin": "Fundamental",
      "version": "1.4.0",
      "model": "Scope",
      "params": [
        {
          "id": 0,
          "value": 0.0
        },
        {
          "id": 1,
          "value": 0.0
        },
        {
          "id": 2,
          "value": 0.0
        },
        {
          "id": 3,
          "value": 0.0
        },
        {
          "id": 4,
          "value": 14.0
        },
        {
          "id": 5,
          "value": 0.0
        },
        {
          "id": 6,
          "value": 0.0
        },
        {
          "id": 7,
          "value": 0.0
        }
      ],
      "leftModuleId": 6,
      "data": {
        "lissajous": 0,
        "external": 0
      },
      "pos": [
        27,
        0
      ]
    },
    {
      "id": 88,
      "plugin": "Fundamental",
      "version": "1.4.0",
      "model": "VCO",
      "params": [
        {
          "id": 0,
          "value": 1.0
        },
        {
          "id": 1,
          "value": 1.0
        },
        {
          "id": 2,
          "value": -20.5131664
        },
        {
          "id": 3,
          "value": 0.0
        },
        {
          "id": 4,
          "value": 0.0
        },
        {
          "id": 5,
          "value": 0.5
        },
        {
          "id": 6,
          "value": 0.0
        }
      ],
      "leftModuleId": 3,
      "rightModuleId": 2,
      "pos": [
        18,
        1
      ]
    },
    {
      "id": 90,
      "plugin": "Fundamental",
      "version": "1.4.0",
      "model": "VCMixer",
      "params": [
        {
          "id": 0,
          "value": 1.0
        },
        {
          "id": 1,
          "value": 1.0
        },
        {
          "id": 2,
          "value": 1.0
        },
        {
          "id": 3,
          "value": 1.0
        },
        {
          "id": 4,
          "value": 1.0
        }
      ],
      "rightModuleId": 1,
      "pos": [
        47,
        0
      ]
    },
    {
      "id": 95,
      "plugin": "Core",
      "version": "1.1.6",
      "model": "MIDI-Map",
      "params": [],
      "leftModuleId": 2,
      "rightModuleId": 97,
      "data": {
        "maps": [
          {
            "cc": 16,
            "moduleId": 6,
            "paramId": 0
          },
          {
            "cc": 16,
            "moduleId": -1,
            "paramId": 0
          },
          {
            "cc": 20,
            "moduleId": 6,
            "paramId": 1
          },
          {
            "cc": 20,
            "moduleId": -1,
            "paramId": 0
          },
          {
            "cc": 24,
            "moduleId": 6,
            "paramId": 2
          },
          {
            "cc": 24,
            "moduleId": -1,
            "paramId": 0
          },
          {
            "cc": 28,
            "moduleId": 6,
            "paramId": 3
          },
          {
            "cc": 28,
            "moduleId": -1,
            "paramId": 0
          },
          {
            "cc": 18,
            "moduleId": 4,
            "paramId": 0
          },
          {
            "cc": 24,
            "moduleId": -1,
            "paramId": 0
          },
          {
            "cc": 60,
            "moduleId": 99,
            "paramId": 0
          },
          {
            "cc": 60,
            "moduleId": -1,
            "paramId": 0
          },
          {
            "cc": 59,
            "moduleId": 98,
            "paramId": 2
          },
          {
            "cc": 18,
            "moduleId": -1,
            "paramId": 0
          },
          {
            "cc": 19,
            "moduleId": 2,
            "paramId": 1
          },
          {
            "cc": 19,
            "moduleId": -1,
            "paramId": 0
          },
          {
            "cc": 23,
            "moduleId": 2,
            "paramId": 2
          },
          {
            "cc": 59,
            "moduleId": -1,
            "paramId": 0
          },
          {
            "cc": -1,
            "moduleId": -1,
            "paramId": 0
          }
        ],
        "midi": {
          "driver": 4,
          "deviceName": "MIDI Mix 2",
          "channel": -1
        }
      },
      "pos": [
        38,
        1
      ]
    },
    {
      "id": 97,
      "plugin": "Fundamental",
      "version": "1.4.0",
      "model": "VCMixer",
      "params": [
        {
          "id": 0,
          "value": 2.0
        },
        {
          "id": 1,
          "value": 1.41421354
        },
        {
          "id": 2,
          "value": 1.0
        },
        {
          "id": 3,
          "value": 1.0
        },
        {
          "id": 4,
          "value": 1.0
        }
      ],
      "leftModuleId": 95,
      "rightModuleId": 98,
      "pos": [
        48,
        1
      ]
    },
    {
      "id": 98,
      "plugin": "Fundamental",
      "version": "1.4.0",
      "model": "LFO",
      "params": [
        {
          "id": 0,
          "value": 1.0
        },
        {
          "id": 1,
          "value": 1.0
        },
        {
          "id": 2,
          "value": -3.32283497
        },
        {
          "id": 3,
          "value": 0.0
        },
        {
          "id": 4,
          "value": 0.0
        },
        {
          "id": 5,
          "value": 0.5
        },
        {
          "id": 6,
          "value": 0.0
        }
      ],
      "leftModuleId": 97,
      "rightModuleId": 99,
      "pos": [
        58,
        1
      ]
    },
    {
      "id": 99,
      "plugin": "Fundamental",
      "version": "1.4.0",
      "model": "8vert",
      "params": [
        {
          "id": 0,
          "value": 0.795275569
        },
        {
          "id": 1,
          "value": 0.0
        },
        {
          "id": 2,
          "value": 0.0
        },
        {
          "id": 3,
          "value": 0.0
        },
        {
          "id": 4,
          "value": 0.0
        },
        {
          "id": 5,
          "value": 0.0
        },
        {
          "id": 6,
          "value": 0.0
        },
        {
          "id": 7,
          "value": 0.0
        }
      ],
      "leftModuleId": 98,
      "pos": [
        68,
        1
      ]
    }
  ],
  "cables": [
    {
      "id": 238,
      "outputModuleId": 5,
      "outputId": 0,
      "inputModuleId": 3,
      "inputId": 0,
      "color": "#c91847"
    },
    {
      "id": 243,
      "outputModuleId": 5,
      "outputId": 1,
      "inputModuleId": 6,
      "inputId": 4,
      "color": "#c9b70e"
    },
    {
      "id": 247,
      "outputModuleId": 5,
      "outputId": 6,
      "inputModuleId": 6,
      "inputId": 5,
      "color": "#c91847"
    },
    {
      "id": 250,
      "outputModuleId": 2,
      "outputId": 0,
      "inputModuleId": 7,
      "inputId": 0,
      "color": "#c91847"
    },
    {
      "id": 255,
      "outputModuleId": 90,
      "outputId": 0,
      "inputModuleId": 1,
      "inputId": 0,
      "color": "#c9b70e"
    },
    {
      "id": 256,
      "outputModuleId": 90,
      "outputId": 0,
      "inputModuleId": 1,
      "inputId": 1,
      "color": "#0c8e15"
    },
    {
      "id": 263,
      "outputModuleId": 88,
      "outputId": 1,
      "inputModuleId": 2,
      "inputId": 2,
      "color": "#c9b70e"
    },
    {
      "id": 248,
      "outputModuleId": 3,
      "outputId": 1,
      "inputModuleId": 2,
      "inputId": 1,
      "color": "#c9b70e"
    },
    {
      "id": 264,
      "outputModuleId": 6,
      "outputId": 0,
      "inputModuleId": 90,
      "inputId": 5,
      "color": "#0c8e15"
    },
    {
      "id": 266,
      "outputModuleId": 4,
      "outputId": 1,
      "inputModuleId": 97,
      "inputId": 1,
      "color": "#0986ad"
    },
    {
      "id": 270,
      "outputModuleId": 97,
      "outputId": 0,
      "inputModuleId": 7,
      "inputId": 1,
      "color": "#c91847"
    },
    {
      "id": 271,
      "outputModuleId": 97,
      "outputId": 0,
      "inputModuleId": 90,
      "inputId": 1,
      "color": "#c9b70e"
    },
    {
      "id": 274,
      "outputModuleId": 99,
      "outputId": 0,
      "inputModuleId": 4,
      "inputId": 0,
      "color": "#0c8e15"
    },
    {
      "id": 276,
      "outputModuleId": 2,
      "outputId": 0,
      "inputModuleId": 4,
      "inputId": 3,
      "color": "#0986ad"
    },
    {
      "id": 275,
      "outputModuleId": 98,
      "outputId": 0,
      "inputModuleId": 99,
      "inputId": 0,
      "color": "#c91847"
    }
  ]
}