{
  "version": "1.1.6",
  "modules": [
    {
      "id": 37,
      "plugin": "Core",
      "version": "1.1.6",
      "model": "MIDIToCVInterface",
      "params": [],
      "rightModuleId": 63,
      "data": {
        "channels": 4,
        "polyMode": 0,
        "clockDivision": 24,
        "lastPitch": 8192,
        "lastMod": 0,
        "midi": {
          "driver": 4,
          "deviceName": "Arturia KeyStep 32 1",
          "channel": -1
        }
      },
      "pos": [
        0,
        0
      ]
    },
    {
      "id": 39,
      "plugin": "Fundamental",
      "version": "1.4.0",
      "model": "Scope",
      "params": [
        {
          "id": 0,
          "value": 0.0
        },
        {
          "id": 1,
          "value": 0.0
        },
        {
          "id": 2,
          "value": -2.0
        },
        {
          "id": 3,
          "value": 0.0
        },
        {
          "id": 4,
          "value": 14.0
        },
        {
          "id": 5,
          "value": 0.0
        },
        {
          "id": 6,
          "value": 0.0
        },
        {
          "id": 7,
          "value": 0.0
        }
      ],
      "leftModuleId": 41,
      "rightModuleId": 42,
      "data": {
        "lissajous": 0,
        "external": 0
      },
      "pos": [
        61,
        0
      ]
    },
    {
      "id": 41,
      "plugin": "Fundamental",
      "version": "1.4.0",
      "model": "VCMixer",
      "params": [
        {
          "id": 0,
          "value": 1.48031497
        },
        {
          "id": 1,
          "value": 1.10241842
        },
        {
          "id": 2,
          "value": 0.545641422
        },
        {
          "id": 3,
          "value": 0.690403461
        },
        {
          "id": 4,
          "value": 0.768352211
        }
      ],
      "leftModuleId": 43,
      "rightModuleId": 39,
      "pos": [
        51,
        0
      ]
    },
    {
      "id": 42,
      "plugin": "Core",
      "version": "1.1.6",
      "model": "AudioInterface",
      "params": [],
      "leftModuleId": 39,
      "rightModuleId": 62,
      "data": {
        "audio": {
          "driver": 7,
          "deviceName": "MOTU M Series",
          "offset": 0,
          "maxChannels": 8,
          "sampleRate": 44100,
          "blockSize": 256
        }
      },
      "pos": [
        74,
        0
      ]
    },
    {
      "id": 43,
      "plugin": "Fundamental",
      "version": "1.4.0",
      "model": "ADSR",
      "params": [
        {
          "id": 0,
          "value": 0.0
        },
        {
          "id": 1,
          "value": 0.354330719
        },
        {
          "id": 2,
          "value": 0.622047246
        },
        {
          "id": 3,
          "value": 0.763779521
        }
      ],
      "leftModuleId": 66,
      "rightModuleId": 41,
      "pos": [
        43,
        0
      ]
    },
    {
      "id": 62,
      "plugin": "Core",
      "version": "1.1.6",
      "model": "MIDI-Map",
      "params": [],
      "leftModuleId": 42,
      "data": {
        "maps": [
          {
            "cc": 19,
            "moduleId": 41,
            "paramId": 1
          },
          {
            "cc": 19,
            "moduleId": -1,
            "paramId": 0
          },
          {
            "cc": 58,
            "moduleId": 40,
            "paramId": 0
          },
          {
            "cc": 58,
            "moduleId": -1,
            "paramId": 0
          },
          {
            "cc": 16,
            "moduleId": 43,
            "paramId": 0
          },
          {
            "cc": 16,
            "moduleId": -1,
            "paramId": 0
          },
          {
            "cc": 20,
            "moduleId": 43,
            "paramId": 1
          },
          {
            "cc": 20,
            "moduleId": -1,
            "paramId": 0
          },
          {
            "cc": 24,
            "moduleId": 43,
            "paramId": 2
          },
          {
            "cc": 24,
            "moduleId": -1,
            "paramId": 0
          },
          {
            "cc": 28,
            "moduleId": 43,
            "paramId": 3
          },
          {
            "cc": 28,
            "moduleId": -1,
            "paramId": 0
          },
          {
            "cc": 59,
            "moduleId": 40,
            "paramId": 2
          },
          {
            "cc": 59,
            "moduleId": -1,
            "paramId": 0
          },
          {
            "cc": 62,
            "moduleId": 41,
            "paramId": 0
          },
          {
            "cc": 19,
            "moduleId": -1,
            "paramId": 0
          },
          {
            "cc": 23,
            "moduleId": 41,
            "paramId": 2
          },
          {
            "cc": 23,
            "moduleId": -1,
            "paramId": 0
          },
          {
            "cc": 27,
            "moduleId": 41,
            "paramId": 3
          },
          {
            "cc": 31,
            "moduleId": -1,
            "paramId": 0
          },
          {
            "cc": 31,
            "moduleId": 41,
            "paramId": 4
          },
          {
            "cc": 62,
            "moduleId": -1,
            "paramId": 0
          },
          {
            "cc": 56,
            "moduleId": 74,
            "paramId": 1
          },
          {
            "cc": 56,
            "moduleId": -1,
            "paramId": 0
          },
          {
            "cc": 59,
            "moduleId": 74,
            "paramId": 2
          },
          {
            "cc": 59,
            "moduleId": -1,
            "paramId": 0
          },
          {
            "cc": 51,
            "moduleId": 74,
            "paramId": 0
          },
          {
            "cc": 51,
            "moduleId": -1,
            "paramId": 0
          },
          {
            "cc": -1,
            "moduleId": -1,
            "paramId": 0
          }
        ],
        "midi": {
          "driver": 4,
          "deviceName": "MIDI Mix 2",
          "channel": -1
        }
      },
      "pos": [
        84,
        0
      ]
    },
    {
      "id": 63,
      "plugin": "Fundamental",
      "version": "1.4.0",
      "model": "Noise",
      "params": [],
      "leftModuleId": 37,
      "rightModuleId": 67,
      "pos": [
        8,
        0
      ]
    },
    {
      "id": 64,
      "plugin": "Fundamental",
      "version": "1.4.0",
      "model": "VCF",
      "params": [
        {
          "id": 0,
          "value": 0.600002408
        },
        {
          "id": 1,
          "value": 0.5
        },
        {
          "id": 2,
          "value": 0.990740061
        },
        {
          "id": 3,
          "value": 1.0
        },
        {
          "id": 4,
          "value": 1.0
        }
      ],
      "leftModuleId": 67,
      "rightModuleId": 65,
      "pos": [
        19,
        0
      ]
    },
    {
      "id": 65,
      "plugin": "Fundamental",
      "version": "1.4.0",
      "model": "VCF",
      "params": [
        {
          "id": 0,
          "value": 0.732195199
        },
        {
          "id": 1,
          "value": 0.5
        },
        {
          "id": 2,
          "value": 1.0
        },
        {
          "id": 3,
          "value": 1.0
        },
        {
          "id": 4,
          "value": 0.0
        }
      ],
      "leftModuleId": 64,
      "rightModuleId": 66,
      "pos": [
        27,
        0
      ]
    },
    {
      "id": 66,
      "plugin": "Fundamental",
      "version": "1.4.0",
      "model": "VCF",
      "params": [
        {
          "id": 0,
          "value": 0.780737936
        },
        {
          "id": 1,
          "value": 0.5
        },
        {
          "id": 2,
          "value": 1.0
        },
        {
          "id": 3,
          "value": 1.0
        },
        {
          "id": 4,
          "value": 0.0
        }
      ],
      "leftModuleId": 65,
      "rightModuleId": 43,
      "pos": [
        35,
        0
      ]
    },
    {
      "id": 67,
      "plugin": "Fundamental",
      "version": "1.4.0",
      "model": "VCF",
      "params": [
        {
          "id": 0,
          "value": 0.5
        },
        {
          "id": 1,
          "value": 0.5
        },
        {
          "id": 2,
          "value": 0.984740317
        },
        {
          "id": 3,
          "value": 1.0
        },
        {
          "id": 4,
          "value": 1.0
        }
      ],
      "leftModuleId": 63,
      "rightModuleId": 64,
      "pos": [
        11,
        0
      ]
    }
  ],
  "cables": [
    {
      "id": 177,
      "outputModuleId": 37,
      "outputId": 1,
      "inputModuleId": 43,
      "inputId": 4,
      "color": "#0986ad"
    },
    {
      "id": 179,
      "outputModuleId": 43,
      "outputId": 0,
      "inputModuleId": 41,
      "inputId": 6,
      "color": "#0c8e15"
    },
    {
      "id": 180,
      "outputModuleId": 43,
      "outputId": 0,
      "inputModuleId": 41,
      "inputId": 7,
      "color": "#c91847"
    },
    {
      "id": 181,
      "outputModuleId": 43,
      "outputId": 0,
      "inputModuleId": 41,
      "inputId": 8,
      "color": "#0986ad"
    },
    {
      "id": 192,
      "outputModuleId": 37,
      "outputId": 6,
      "inputModuleId": 43,
      "inputId": 5,
      "color": "#0986ad"
    },
    {
      "id": 197,
      "outputModuleId": 67,
      "outputId": 0,
      "inputModuleId": 41,
      "inputId": 1,
      "color": "#c9b70e"
    },
    {
      "id": 200,
      "outputModuleId": 43,
      "outputId": 0,
      "inputModuleId": 41,
      "inputId": 5,
      "color": "#0986ad"
    },
    {
      "id": 201,
      "outputModuleId": 41,
      "outputId": 0,
      "inputModuleId": 42,
      "inputId": 0,
      "color": "#c9b70e"
    },
    {
      "id": 202,
      "outputModuleId": 41,
      "outputId": 0,
      "inputModuleId": 42,
      "inputId": 1,
      "color": "#0c8e15"
    },
    {
      "id": 198,
      "outputModuleId": 37,
      "outputId": 0,
      "inputModuleId": 67,
      "inputId": 0,
      "color": "#0c8e15"
    },
    {
      "id": 203,
      "outputModuleId": 37,
      "outputId": 0,
      "inputModuleId": 64,
      "inputId": 0,
      "color": "#c91847"
    },
    {
      "id": 204,
      "outputModuleId": 64,
      "outputId": 0,
      "inputModuleId": 41,
      "inputId": 2,
      "color": "#0986ad"
    },
    {
      "id": 205,
      "outputModuleId": 65,
      "outputId": 0,
      "inputModuleId": 41,
      "inputId": 3,
      "color": "#c9b70e"
    },
    {
      "id": 206,
      "outputModuleId": 37,
      "outputId": 0,
      "inputModuleId": 65,
      "inputId": 0,
      "color": "#0c8e15"
    },
    {
      "id": 207,
      "outputModuleId": 66,
      "outputId": 0,
      "inputModuleId": 41,
      "inputId": 4,
      "color": "#c91847"
    },
    {
      "id": 208,
      "outputModuleId": 37,
      "outputId": 0,
      "inputModuleId": 66,
      "inputId": 0,
      "color": "#0986ad"
    },
    {
      "id": 210,
      "outputModuleId": 41,
      "outputId": 0,
      "inputModuleId": 39,
      "inputId": 0,
      "color": "#0c8e15"
    }
  ]
}