{
  "version": "1.1.6",
  "modules": [
    {
      "id": 37,
      "plugin": "Core",
      "version": "1.1.6",
      "model": "MIDIToCVInterface",
      "params": [],
      "rightModuleId": 63,
      "data": {
        "channels": 4,
        "polyMode": 0,
        "clockDivision": 24,
        "lastPitch": 8192,
        "lastMod": 0,
        "midi": {
          "driver": 4,
          "deviceName": "Arturia KeyStep 32 1",
          "channel": -1
        }
      },
      "pos": [
        0,
        0
      ]
    },
    {
      "id": 39,
      "plugin": "Fundamental",
      "version": "1.4.0",
      "model": "Scope",
      "params": [
        {
          "id": 0,
          "value": 0.0
        },
        {
          "id": 1,
          "value": 0.0
        },
        {
          "id": 2,
          "value": -2.0
        },
        {
          "id": 3,
          "value": 0.0
        },
        {
          "id": 4,
          "value": 14.0
        },
        {
          "id": 5,
          "value": 0.0
        },
        {
          "id": 6,
          "value": 0.0
        },
        {
          "id": 7,
          "value": 0.0
        }
      ],
      "rightModuleId": 42,
      "data": {
        "lissajous": 0,
        "external": 0
      },
      "pos": [
        71,
        0
      ]
    },
    {
      "id": 41,
      "plugin": "Fundamental",
      "version": "1.4.0",
      "model": "VCMixer",
      "params": [
        {
          "id": 0,
          "value": 1.48031497
        },
        {
          "id": 1,
          "value": 0.42315051
        },
        {
          "id": 2,
          "value": 0.322930634
        },
        {
          "id": 3,
          "value": 0.267252952
        },
        {
          "id": 4,
          "value": 0.222710788
        }
      ],
      "leftModuleId": 43,
      "pos": [
        51,
        0
      ]
    },
    {
      "id": 42,
      "plugin": "Core",
      "version": "1.1.6",
      "model": "AudioInterface",
      "params": [],
      "leftModuleId": 39,
      "rightModuleId": 62,
      "data": {
        "audio": {
          "driver": 7,
          "deviceName": "MOTU M Series",
          "offset": 0,
          "maxChannels": 8,
          "sampleRate": 44100,
          "blockSize": 256
        }
      },
      "pos": [
        84,
        0
      ]
    },
    {
      "id": 43,
      "plugin": "Fundamental",
      "version": "1.4.0",
      "model": "ADSR",
      "params": [
        {
          "id": 0,
          "value": 0.0
        },
        {
          "id": 1,
          "value": 0.354330719
        },
        {
          "id": 2,
          "value": 0.771653533
        },
        {
          "id": 3,
          "value": 0.0
        }
      ],
      "leftModuleId": 66,
      "rightModuleId": 41,
      "pos": [
        43,
        0
      ]
    },
    {
      "id": 62,
      "plugin": "Core",
      "version": "1.1.6",
      "model": "MIDI-Map",
      "params": [],
      "leftModuleId": 42,
      "data": {
        "maps": [
          {
            "cc": 19,
            "moduleId": 41,
            "paramId": 1
          },
          {
            "cc": 19,
            "moduleId": -1,
            "paramId": 0
          },
          {
            "cc": 58,
            "moduleId": 40,
            "paramId": 0
          },
          {
            "cc": 58,
            "moduleId": -1,
            "paramId": 0
          },
          {
            "cc": 16,
            "moduleId": 43,
            "paramId": 0
          },
          {
            "cc": 16,
            "moduleId": -1,
            "paramId": 0
          },
          {
            "cc": 20,
            "moduleId": 43,
            "paramId": 1
          },
          {
            "cc": 20,
            "moduleId": -1,
            "paramId": 0
          },
          {
            "cc": 24,
            "moduleId": 43,
            "paramId": 2
          },
          {
            "cc": 24,
            "moduleId": -1,
            "paramId": 0
          },
          {
            "cc": 28,
            "moduleId": 43,
            "paramId": 3
          },
          {
            "cc": 28,
            "moduleId": -1,
            "paramId": 0
          },
          {
            "cc": 59,
            "moduleId": 40,
            "paramId": 2
          },
          {
            "cc": 59,
            "moduleId": -1,
            "paramId": 0
          },
          {
            "cc": 62,
            "moduleId": 41,
            "paramId": 0
          },
          {
            "cc": 19,
            "moduleId": -1,
            "paramId": 0
          },
          {
            "cc": 23,
            "moduleId": 41,
            "paramId": 2
          },
          {
            "cc": 23,
            "moduleId": -1,
            "paramId": 0
          },
          {
            "cc": 27,
            "moduleId": 41,
            "paramId": 3
          },
          {
            "cc": 31,
            "moduleId": -1,
            "paramId": 0
          },
          {
            "cc": 31,
            "moduleId": 41,
            "paramId": 4
          },
          {
            "cc": 62,
            "moduleId": -1,
            "paramId": 0
          },
          {
            "cc": 56,
            "moduleId": 74,
            "paramId": 1
          },
          {
            "cc": 56,
            "moduleId": -1,
            "paramId": 0
          },
          {
            "cc": 59,
            "moduleId": 74,
            "paramId": 2
          },
          {
            "cc": 59,
            "moduleId": -1,
            "paramId": 0
          },
          {
            "cc": 51,
            "moduleId": 74,
            "paramId": 0
          },
          {
            "cc": 51,
            "moduleId": -1,
            "paramId": 0
          },
          {
            "cc": -1,
            "moduleId": -1,
            "paramId": 0
          }
        ],
        "midi": {
          "driver": 4,
          "deviceName": "MIDI Mix 2",
          "channel": -1
        }
      },
      "pos": [
        94,
        0
      ]
    },
    {
      "id": 63,
      "plugin": "Fundamental",
      "version": "1.4.0",
      "model": "Noise",
      "params": [],
      "leftModuleId": 37,
      "rightModuleId": 67,
      "pos": [
        8,
        0
      ]
    },
    {
      "id": 64,
      "plugin": "Fundamental",
      "version": "1.4.0",
      "model": "VCF",
      "params": [
        {
          "id": 0,
          "value": 0.46124962
        },
        {
          "id": 1,
          "value": 0.5
        },
        {
          "id": 2,
          "value": 0.0787401572
        },
        {
          "id": 3,
          "value": 1.0
        },
        {
          "id": 4,
          "value": 0.0
        }
      ],
      "leftModuleId": 67,
      "rightModuleId": 65,
      "pos": [
        19,
        0
      ]
    },
    {
      "id": 65,
      "plugin": "Fundamental",
      "version": "1.4.0",
      "model": "VCF",
      "params": [
        {
          "id": 0,
          "value": 0.59344244
        },
        {
          "id": 1,
          "value": 0.5
        },
        {
          "id": 2,
          "value": 0.0787401572
        },
        {
          "id": 3,
          "value": 1.0
        },
        {
          "id": 4,
          "value": 0.0
        }
      ],
      "leftModuleId": 64,
      "rightModuleId": 66,
      "pos": [
        27,
        0
      ]
    },
    {
      "id": 66,
      "plugin": "Fundamental",
      "version": "1.4.0",
      "model": "VCF",
      "params": [
        {
          "id": 0,
          "value": 0.641985118
        },
        {
          "id": 1,
          "value": 0.5
        },
        {
          "id": 2,
          "value": 0.0787401572
        },
        {
          "id": 3,
          "value": 1.0
        },
        {
          "id": 4,
          "value": 0.0
        }
      ],
      "leftModuleId": 65,
      "rightModuleId": 43,
      "pos": [
        35,
        0
      ]
    },
    {
      "id": 67,
      "plugin": "Fundamental",
      "version": "1.4.0",
      "model": "VCF",
      "params": [
        {
          "id": 0,
          "value": 0.361249626
        },
        {
          "id": 1,
          "value": 0.5
        },
        {
          "id": 2,
          "value": 0.0787401572
        },
        {
          "id": 3,
          "value": 1.0
        },
        {
          "id": 4,
          "value": 0.0
        }
      ],
      "leftModuleId": 63,
      "rightModuleId": 64,
      "pos": [
        11,
        0
      ]
    },
    {
      "id": 70,
      "plugin": "Bogaudio",
      "version": "1.1.34",
      "model": "Bogaudio-VCF",
      "params": [
        {
          "id": 0,
          "value": 0.100000001
        },
        {
          "id": 1,
          "value": 0.0
        },
        {
          "id": 2,
          "value": 0.0
        },
        {
          "id": 3,
          "value": 1.0
        },
        {
          "id": 4,
          "value": 2.0
        },
        {
          "id": 5,
          "value": 0.522233009
        }
      ],
      "leftModuleId": 72,
      "rightModuleId": 71,
      "data": {
        "bandwidthMode": "pitched"
      },
      "pos": [
        20,
        1
      ]
    },
    {
      "id": 71,
      "plugin": "Bogaudio",
      "version": "1.1.34",
      "model": "Bogaudio-VCF",
      "params": [
        {
          "id": 0,
          "value": 0.158113882
        },
        {
          "id": 1,
          "value": 0.0
        },
        {
          "id": 2,
          "value": 0.0
        },
        {
          "id": 3,
          "value": 1.0
        },
        {
          "id": 4,
          "value": 2.0
        },
        {
          "id": 5,
          "value": 0.522233009
        }
      ],
      "leftModuleId": 70,
      "rightModuleId": 73,
      "data": {
        "bandwidthMode": "pitched"
      },
      "pos": [
        30,
        1
      ]
    },
    {
      "id": 72,
      "plugin": "Bogaudio",
      "version": "1.1.34",
      "model": "Bogaudio-VCF",
      "params": [
        {
          "id": 0,
          "value": 0.0707106739
        },
        {
          "id": 1,
          "value": 0.0
        },
        {
          "id": 2,
          "value": 0.0
        },
        {
          "id": 3,
          "value": 1.0
        },
        {
          "id": 4,
          "value": 2.0
        },
        {
          "id": 5,
          "value": 0.522233009
        }
      ],
      "rightModuleId": 70,
      "data": {
        "bandwidthMode": "pitched"
      },
      "pos": [
        10,
        1
      ]
    },
    {
      "id": 73,
      "plugin": "Bogaudio",
      "version": "1.1.34",
      "model": "Bogaudio-VCF",
      "params": [
        {
          "id": 0,
          "value": 0.187082872
        },
        {
          "id": 1,
          "value": 0.0
        },
        {
          "id": 2,
          "value": 0.0
        },
        {
          "id": 3,
          "value": 1.0
        },
        {
          "id": 4,
          "value": 2.0
        },
        {
          "id": 5,
          "value": 0.522233009
        }
      ],
      "leftModuleId": 71,
      "rightModuleId": 74,
      "data": {
        "bandwidthMode": "pitched"
      },
      "pos": [
        40,
        1
      ]
    },
    {
      "id": 74,
      "plugin": "AlrightDevices",
      "version": "1.0.3",
      "model": "Chronoblob2",
      "params": [
        {
          "id": 0,
          "value": 0.590551198
        },
        {
          "id": 1,
          "value": 0.0
        },
        {
          "id": 2,
          "value": 0.669291317
        },
        {
          "id": 3,
          "value": 0.0
        },
        {
          "id": 4,
          "value": 0.0
        },
        {
          "id": 5,
          "value": 0.0
        },
        {
          "id": 6,
          "value": 0.0
        },
        {
          "id": 7,
          "value": 0.0
        },
        {
          "id": 8,
          "value": 0.0
        },
        {
          "id": 9,
          "value": 0.0
        }
      ],
      "leftModuleId": 73,
      "rightModuleId": 75,
      "data": {
        "delay_mode": 0,
        "hold_behavior": 0,
        "sync_prescaler": 6
      },
      "pos": [
        50,
        1
      ]
    },
    {
      "id": 75,
      "plugin": "Fundamental",
      "version": "1.4.0",
      "model": "VCMixer",
      "params": [
        {
          "id": 0,
          "value": 2.0
        },
        {
          "id": 1,
          "value": 1.20263827
        },
        {
          "id": 2,
          "value": 1.28058708
        },
        {
          "id": 3,
          "value": 1.22490942
        },
        {
          "id": 4,
          "value": 1.06901181
        }
      ],
      "leftModuleId": 74,
      "pos": [
        62,
        1
      ]
    }
  ],
  "cables": [
    {
      "id": 161,
      "outputModuleId": 63,
      "outputId": 0,
      "inputModuleId": 72,
      "inputId": 3,
      "color": "#c9b70e"
    },
    {
      "id": 162,
      "outputModuleId": 63,
      "outputId": 0,
      "inputModuleId": 70,
      "inputId": 3,
      "color": "#0c8e15"
    },
    {
      "id": 163,
      "outputModuleId": 63,
      "outputId": 0,
      "inputModuleId": 71,
      "inputId": 3,
      "color": "#c91847"
    },
    {
      "id": 164,
      "outputModuleId": 63,
      "outputId": 0,
      "inputModuleId": 73,
      "inputId": 3,
      "color": "#0986ad"
    },
    {
      "id": 169,
      "outputModuleId": 73,
      "outputId": 0,
      "inputModuleId": 41,
      "inputId": 4,
      "color": "#0986ad"
    },
    {
      "id": 170,
      "outputModuleId": 71,
      "outputId": 0,
      "inputModuleId": 41,
      "inputId": 3,
      "color": "#c9b70e"
    },
    {
      "id": 171,
      "outputModuleId": 70,
      "outputId": 0,
      "inputModuleId": 41,
      "inputId": 2,
      "color": "#0c8e15"
    },
    {
      "id": 172,
      "outputModuleId": 72,
      "outputId": 0,
      "inputModuleId": 41,
      "inputId": 1,
      "color": "#c91847"
    },
    {
      "id": 177,
      "outputModuleId": 37,
      "outputId": 1,
      "inputModuleId": 43,
      "inputId": 4,
      "color": "#0986ad"
    },
    {
      "id": 174,
      "outputModuleId": 37,
      "outputId": 0,
      "inputModuleId": 70,
      "inputId": 2,
      "color": "#c9b70e"
    },
    {
      "id": 175,
      "outputModuleId": 37,
      "outputId": 0,
      "inputModuleId": 71,
      "inputId": 2,
      "color": "#0c8e15"
    },
    {
      "id": 176,
      "outputModuleId": 37,
      "outputId": 0,
      "inputModuleId": 73,
      "inputId": 2,
      "color": "#c91847"
    },
    {
      "id": 178,
      "outputModuleId": 43,
      "outputId": 0,
      "inputModuleId": 41,
      "inputId": 5,
      "color": "#c9b70e"
    },
    {
      "id": 179,
      "outputModuleId": 43,
      "outputId": 0,
      "inputModuleId": 41,
      "inputId": 6,
      "color": "#0c8e15"
    },
    {
      "id": 180,
      "outputModuleId": 43,
      "outputId": 0,
      "inputModuleId": 41,
      "inputId": 7,
      "color": "#c91847"
    },
    {
      "id": 181,
      "outputModuleId": 43,
      "outputId": 0,
      "inputModuleId": 41,
      "inputId": 8,
      "color": "#0986ad"
    },
    {
      "id": 182,
      "outputModuleId": 41,
      "outputId": 0,
      "inputModuleId": 74,
      "inputId": 5,
      "color": "#c9b70e"
    },
    {
      "id": 183,
      "outputModuleId": 74,
      "outputId": 0,
      "inputModuleId": 74,
      "inputId": 6,
      "color": "#c91847"
    },
    {
      "id": 173,
      "outputModuleId": 37,
      "outputId": 0,
      "inputModuleId": 72,
      "inputId": 2,
      "color": "#0986ad"
    },
    {
      "id": 188,
      "outputModuleId": 74,
      "outputId": 1,
      "inputModuleId": 75,
      "inputId": 1,
      "color": "#0986ad"
    },
    {
      "id": 189,
      "outputModuleId": 75,
      "outputId": 0,
      "inputModuleId": 39,
      "inputId": 0,
      "color": "#c9b70e"
    },
    {
      "id": 190,
      "outputModuleId": 75,
      "outputId": 0,
      "inputModuleId": 42,
      "inputId": 0,
      "color": "#0c8e15"
    },
    {
      "id": 191,
      "outputModuleId": 75,
      "outputId": 0,
      "inputModuleId": 42,
      "inputId": 1,
      "color": "#c91847"
    },
    {
      "id": 192,
      "outputModuleId": 37,
      "outputId": 6,
      "inputModuleId": 43,
      "inputId": 5,
      "color": "#0986ad"
    }
  ]
}