{
  "version": "1.1.6",
  "modules": [
    {
      "id": 1,
      "plugin": "Core",
      "version": "1.1.6",
      "model": "AudioInterface",
      "params": [],
      "leftModuleId": 11,
      "data": {
        "audio": {
          "driver": 7,
          "deviceName": "MOTU M Series",
          "offset": 0,
          "maxChannels": 8,
          "sampleRate": 44100,
          "blockSize": 512
        }
      },
      "pos": [
        110,
        0
      ]
    },
    {
      "id": 2,
      "plugin": "Fundamental",
      "version": "1.4.0",
      "model": "VCMixer",
      "params": [
        {
          "id": 0,
          "value": 0.59842521
        },
        {
          "id": 1,
          "value": 1.0
        },
        {
          "id": 2,
          "value": 0.643618226
        },
        {
          "id": 3,
          "value": 1.0
        },
        {
          "id": 4,
          "value": 1.0
        }
      ],
      "leftModuleId": 13,
      "rightModuleId": 11,
      "pos": [
        92,
        0
      ]
    },
    {
      "id": 4,
      "plugin": "Fundamental",
      "version": "1.4.0",
      "model": "Scope",
      "params": [
        {
          "id": 0,
          "value": 0.0
        },
        {
          "id": 1,
          "value": 0.0
        },
        {
          "id": 2,
          "value": 0.0
        },
        {
          "id": 3,
          "value": 0.0
        },
        {
          "id": 4,
          "value": 14.0
        },
        {
          "id": 5,
          "value": 0.0
        },
        {
          "id": 6,
          "value": 0.0
        },
        {
          "id": 7,
          "value": 0.0
        }
      ],
      "leftModuleId": 95,
      "rightModuleId": 96,
      "data": {
        "lissajous": 0,
        "external": 0
      },
      "pos": [
        53,
        0
      ]
    },
    {
      "id": 11,
      "plugin": "Fundamental",
      "version": "1.4.0",
      "model": "Delay",
      "params": [
        {
          "id": 0,
          "value": 0.55905509
        },
        {
          "id": 1,
          "value": 0.708661437
        },
        {
          "id": 2,
          "value": 0.125984251
        },
        {
          "id": 3,
          "value": 0.858267725
        }
      ],
      "leftModuleId": 2,
      "rightModuleId": 1,
      "pos": [
        102,
        0
      ]
    },
    {
      "id": 12,
      "plugin": "Fundamental",
      "version": "1.4.0",
      "model": "VCF",
      "params": [
        {
          "id": 0,
          "value": 0.0
        },
        {
          "id": 1,
          "value": 0.5
        },
        {
          "id": 2,
          "value": 0.139499724
        },
        {
          "id": 3,
          "value": 1.0
        },
        {
          "id": 4,
          "value": 0.523499966
        }
      ],
      "leftModuleId": 96,
      "rightModuleId": 13,
      "pos": [
        76,
        0
      ]
    },
    {
      "id": 13,
      "plugin": "Fundamental",
      "version": "1.4.0",
      "model": "ADSR",
      "params": [
        {
          "id": 0,
          "value": 0.0
        },
        {
          "id": 1,
          "value": 0.55905509
        },
        {
          "id": 2,
          "value": 0.574803174
        },
        {
          "id": 3,
          "value": 0.574803174
        }
      ],
      "leftModuleId": 12,
      "rightModuleId": 2,
      "pos": [
        84,
        0
      ]
    },
    {
      "id": 88,
      "plugin": "Fundamental",
      "version": "1.4.0",
      "model": "VCO",
      "params": [
        {
          "id": 0,
          "value": 1.0
        },
        {
          "id": 1,
          "value": 1.0
        },
        {
          "id": 2,
          "value": 0.0
        },
        {
          "id": 3,
          "value": 0.0
        },
        {
          "id": 4,
          "value": 0.0
        },
        {
          "id": 5,
          "value": 0.5
        },
        {
          "id": 6,
          "value": 0.0
        }
      ],
      "leftModuleId": 94,
      "rightModuleId": 95,
      "pos": [
        33,
        0
      ]
    },
    {
      "id": 89,
      "plugin": "Fundamental",
      "version": "1.4.0",
      "model": "LFO",
      "params": [
        {
          "id": 0,
          "value": 0.0
        },
        {
          "id": 1,
          "value": 1.0
        },
        {
          "id": 2,
          "value": 4.18897629
        },
        {
          "id": 3,
          "value": 0.0
        },
        {
          "id": 4,
          "value": 0.0
        },
        {
          "id": 5,
          "value": 0.5
        },
        {
          "id": 6,
          "value": 0.0
        }
      ],
      "leftModuleId": 92,
      "rightModuleId": 93,
      "pos": [
        10,
        0
      ]
    },
    {
      "id": 92,
      "plugin": "Core",
      "version": "1.1.6",
      "model": "MIDI-Map",
      "params": [],
      "rightModuleId": 89,
      "data": {
        "maps": [
          {
            "cc": 16,
            "moduleId": 93,
            "paramId": 0
          },
          {
            "cc": 19,
            "moduleId": 94,
            "paramId": 0
          },
          {
            "cc": 23,
            "moduleId": -1,
            "paramId": 0
          },
          {
            "cc": 23,
            "moduleId": 94,
            "paramId": 1
          },
          {
            "cc": 19,
            "moduleId": -1,
            "paramId": 0
          },
          {
            "cc": 62,
            "moduleId": 2,
            "paramId": 0
          },
          {
            "cc": 18,
            "moduleId": 89,
            "paramId": 2
          },
          {
            "cc": 62,
            "moduleId": -1,
            "paramId": 0
          },
          {
            "cc": 60,
            "moduleId": 11,
            "paramId": 0
          },
          {
            "cc": 60,
            "moduleId": -1,
            "paramId": 0
          },
          {
            "cc": 56,
            "moduleId": 11,
            "paramId": 1
          },
          {
            "cc": 56,
            "moduleId": -1,
            "paramId": 0
          },
          {
            "cc": 52,
            "moduleId": 11,
            "paramId": 2
          },
          {
            "cc": 52,
            "moduleId": -1,
            "paramId": 0
          },
          {
            "cc": 48,
            "moduleId": 11,
            "paramId": 3
          },
          {
            "cc": 48,
            "moduleId": -1,
            "paramId": 0
          },
          {
            "cc": -1,
            "moduleId": -1,
            "paramId": 0
          }
        ],
        "midi": {
          "driver": 4,
          "deviceName": "MIDI Mix 2",
          "channel": -1
        }
      },
      "pos": [
        0,
        0
      ]
    },
    {
      "id": 93,
      "plugin": "Fundamental",
      "version": "1.4.0",
      "model": "8vert",
      "params": [
        {
          "id": 0,
          "value": 0.307086587
        },
        {
          "id": 1,
          "value": 1.0
        },
        {
          "id": 2,
          "value": 0.0
        },
        {
          "id": 3,
          "value": 0.0
        },
        {
          "id": 4,
          "value": 0.0
        },
        {
          "id": 5,
          "value": 0.0
        },
        {
          "id": 6,
          "value": 0.0
        },
        {
          "id": 7,
          "value": 0.0
        }
      ],
      "leftModuleId": 89,
      "rightModuleId": 94,
      "pos": [
        20,
        0
      ]
    },
    {
      "id": 94,
      "plugin": "Fundamental",
      "version": "1.4.0",
      "model": "Random",
      "params": [
        {
          "id": 0,
          "value": 4.37424183
        },
        {
          "id": 1,
          "value": 0.692913413
        },
        {
          "id": 2,
          "value": 1.0
        },
        {
          "id": 3,
          "value": 1.0
        }
      ],
      "leftModuleId": 93,
      "rightModuleId": 88,
      "pos": [
        28,
        0
      ]
    },
    {
      "id": 95,
      "plugin": "Fundamental",
      "version": "1.4.0",
      "model": "VCO",
      "params": [
        {
          "id": 0,
          "value": 1.0
        },
        {
          "id": 1,
          "value": 1.0
        },
        {
          "id": 2,
          "value": -11.9996996
        },
        {
          "id": 3,
          "value": 0.0
        },
        {
          "id": 4,
          "value": 0.0
        },
        {
          "id": 5,
          "value": 0.5
        },
        {
          "id": 6,
          "value": 0.0
        }
      ],
      "leftModuleId": 88,
      "rightModuleId": 4,
      "pos": [
        43,
        0
      ]
    },
    {
      "id": 96,
      "plugin": "Fundamental",
      "version": "1.4.0",
      "model": "VCMixer",
      "params": [
        {
          "id": 0,
          "value": 1.00200009
        },
        {
          "id": 1,
          "value": 1.0
        },
        {
          "id": 2,
          "value": 0.643618226
        },
        {
          "id": 3,
          "value": 1.0
        },
        {
          "id": 4,
          "value": 1.0
        }
      ],
      "leftModuleId": 4,
      "rightModuleId": 12,
      "pos": [
        66,
        0
      ]
    },
    {
      "id": 97,
      "plugin": "Fundamental",
      "version": "1.4.0",
      "model": "VCMixer",
      "params": [
        {
          "id": 0,
          "value": 1.0
        },
        {
          "id": 1,
          "value": 1.0
        },
        {
          "id": 2,
          "value": 1.0
        },
        {
          "id": 3,
          "value": 1.0
        },
        {
          "id": 4,
          "value": 1.0
        }
      ],
      "pos": [
        26,
        1
      ]
    }
  ],
  "cables": [
    {
      "id": 24,
      "outputModuleId": 2,
      "outputId": 0,
      "inputModuleId": 11,
      "inputId": 4,
      "color": "#0c8e15"
    },
    {
      "id": 25,
      "outputModuleId": 11,
      "outputId": 0,
      "inputModuleId": 1,
      "inputId": 0,
      "color": "#c91847"
    },
    {
      "id": 26,
      "outputModuleId": 11,
      "outputId": 0,
      "inputModuleId": 1,
      "inputId": 1,
      "color": "#0986ad"
    },
    {
      "id": 30,
      "outputModuleId": 13,
      "outputId": 0,
      "inputModuleId": 2,
      "inputId": 5,
      "color": "#0986ad"
    },
    {
      "id": 29,
      "outputModuleId": 12,
      "outputId": 0,
      "inputModuleId": 2,
      "inputId": 1,
      "color": "#c91847"
    },
    {
      "id": 249,
      "outputModuleId": 93,
      "outputId": 0,
      "inputModuleId": 88,
      "inputId": 0,
      "color": "#0986ad"
    },
    {
      "id": 250,
      "outputModuleId": 93,
      "outputId": 0,
      "inputModuleId": 95,
      "inputId": 0,
      "color": "#c9b70e"
    },
    {
      "id": 251,
      "outputModuleId": 93,
      "outputId": 0,
      "inputModuleId": 4,
      "inputId": 0,
      "color": "#c91847"
    },
    {
      "id": 248,
      "outputModuleId": 94,
      "outputId": 0,
      "inputModuleId": 93,
      "inputId": 0,
      "color": "#c91847"
    },
    {
      "id": 252,
      "outputModuleId": 88,
      "outputId": 1,
      "inputModuleId": 96,
      "inputId": 1,
      "color": "#0986ad"
    },
    {
      "id": 253,
      "outputModuleId": 95,
      "outputId": 3,
      "inputModuleId": 96,
      "inputId": 2,
      "color": "#c9b70e"
    },
    {
      "id": 254,
      "outputModuleId": 96,
      "outputId": 0,
      "inputModuleId": 12,
      "inputId": 3,
      "color": "#0c8e15"
    },
    {
      "id": 255,
      "outputModuleId": 94,
      "outputId": 0,
      "inputModuleId": 13,
      "inputId": 4,
      "color": "#c91847"
    },
    {
      "id": 258,
      "outputModuleId": 94,
      "outputId": 3,
      "inputModuleId": 97,
      "inputId": 1,
      "color": "#0c8e15"
    },
    {
      "id": 259,
      "outputModuleId": 89,
      "outputId": 1,
      "inputModuleId": 97,
      "inputId": 2,
      "color": "#c91847"
    },
    {
      "id": 260,
      "outputModuleId": 97,
      "outputId": 0,
      "inputModuleId": 93,
      "inputId": 1,
      "color": "#0986ad"
    },
    {
      "id": 261,
      "outputModuleId": 93,
      "outputId": 1,
      "inputModuleId": 12,
      "inputId": 0,
      "color": "#c9b70e"
    },
    {
      "id": 262,
      "outputModuleId": 94,
      "outputId": 2,
      "inputModuleId": 12,
      "inputId": 1,
      "color": "#0c8e15"
    }
  ]
}