{
  "version": "1.1.6",
  "modules": [
    {
      "id": 37,
      "plugin": "Core",
      "version": "1.1.6",
      "model": "MIDIToCVInterface",
      "params": [],
      "rightModuleId": 38,
      "data": {
        "channels": 1,
        "polyMode": 0,
        "clockDivision": 24,
        "lastPitch": 8192,
        "lastMod": 0,
        "midi": {
          "driver": 4,
          "deviceName": "Arturia KeyStep 32 1",
          "channel": -1
        }
      },
      "pos": [
        1,
        0
      ]
    },
    {
      "id": 38,
      "plugin": "Fundamental",
      "version": "1.3.1",
      "model": "VCO",
      "params": [
        {
          "id": 0,
          "value": 1.0
        },
        {
          "id": 1,
          "value": 1.0
        },
        {
          "id": 2,
          "value": 0.0
        },
        {
          "id": 3,
          "value": 0.0
        },
        {
          "id": 4,
          "value": 0.0
        },
        {
          "id": 5,
          "value": 0.5
        },
        {
          "id": 6,
          "value": 0.0
        }
      ],
      "leftModuleId": 37,
      "rightModuleId": 40,
      "pos": [
        9,
        0
      ]
    },
    {
      "id": 39,
      "plugin": "Fundamental",
      "version": "1.3.1",
      "model": "Scope",
      "params": [
        {
          "id": 0,
          "value": 0.0
        },
        {
          "id": 1,
          "value": 0.0
        },
        {
          "id": 2,
          "value": 0.0
        },
        {
          "id": 3,
          "value": 0.0
        },
        {
          "id": 4,
          "value": 14.0
        },
        {
          "id": 5,
          "value": 0.0
        },
        {
          "id": 6,
          "value": 0.0
        },
        {
          "id": 7,
          "value": 0.0
        }
      ],
      "leftModuleId": 41,
      "rightModuleId": 42,
      "data": {
        "lissajous": 0,
        "external": 0
      },
      "pos": [
        62,
        0
      ]
    },
    {
      "id": 40,
      "plugin": "Fundamental",
      "version": "1.3.1",
      "model": "VCF",
      "params": [
        {
          "id": 0,
          "value": 0.372000039
        },
        {
          "id": 1,
          "value": 0.5
        },
        {
          "id": 2,
          "value": 0.0
        },
        {
          "id": 3,
          "value": 1.0
        },
        {
          "id": 4,
          "value": 0.0
        }
      ],
      "leftModuleId": 38,
      "rightModuleId": 43,
      "pos": [
        19,
        0
      ]
    },
    {
      "id": 41,
      "plugin": "Fundamental",
      "version": "1.3.1",
      "model": "VCMixer",
      "params": [
        {
          "id": 0,
          "value": 1.0
        },
        {
          "id": 1,
          "value": 1.0
        },
        {
          "id": 2,
          "value": 0.923632562
        },
        {
          "id": 3,
          "value": 1.0
        },
        {
          "id": 4,
          "value": 1.0
        }
      ],
      "rightModuleId": 39,
      "pos": [
        52,
        0
      ]
    },
    {
      "id": 42,
      "plugin": "Core",
      "version": "1.1.6",
      "model": "AudioInterface",
      "params": [],
      "leftModuleId": 39,
      "data": {
        "audio": {
          "driver": 7,
          "deviceName": "MOTU M Series",
          "offset": 0,
          "maxChannels": 8,
          "sampleRate": 44100,
          "blockSize": 256
        }
      },
      "pos": [
        75,
        0
      ]
    },
    {
      "id": 43,
      "plugin": "Fundamental",
      "version": "1.3.1",
      "model": "ADSR",
      "params": [
        {
          "id": 0,
          "value": 0.0
        },
        {
          "id": 1,
          "value": 0.76849997
        },
        {
          "id": 2,
          "value": 0.5
        },
        {
          "id": 3,
          "value": 0.5
        }
      ],
      "leftModuleId": 40,
      "rightModuleId": 44,
      "pos": [
        27,
        0
      ]
    },
    {
      "id": 44,
      "plugin": "Fundamental",
      "version": "1.3.1",
      "model": "Octave",
      "params": [
        {
          "id": 0,
          "value": 4.0
        }
      ],
      "leftModuleId": 43,
      "rightModuleId": 45,
      "pos": [
        35,
        0
      ]
    },
    {
      "id": 45,
      "plugin": "Fundamental",
      "version": "1.3.1",
      "model": "Random",
      "params": [
        {
          "id": 0,
          "value": -7.41112804
        },
        {
          "id": 1,
          "value": 0.564999998
        },
        {
          "id": 2,
          "value": 1.0
        },
        {
          "id": 3,
          "value": 0.0
        }
      ],
      "leftModuleId": 44,
      "pos": [
        38,
        0
      ]
    },
    {
      "id": 46,
      "plugin": "Fundamental",
      "version": "1.3.1",
      "model": "VCO",
      "params": [
        {
          "id": 0,
          "value": 1.0
        },
        {
          "id": 1,
          "value": 1.0
        },
        {
          "id": 2,
          "value": 0.0
        },
        {
          "id": 3,
          "value": 0.0
        },
        {
          "id": 4,
          "value": 0.0
        },
        {
          "id": 5,
          "value": 0.5
        },
        {
          "id": 6,
          "value": 0.0
        }
      ],
      "leftModuleId": 50,
      "rightModuleId": 49,
      "pos": [
        6,
        1
      ]
    },
    {
      "id": 47,
      "plugin": "Fundamental",
      "version": "1.3.1",
      "model": "Octave",
      "params": [
        {
          "id": 0,
          "value": 1.0
        }
      ],
      "rightModuleId": 50,
      "pos": [
        0,
        1
      ]
    },
    {
      "id": 48,
      "plugin": "Fundamental",
      "version": "1.3.1",
      "model": "ADSR",
      "params": [
        {
          "id": 0,
          "value": 0.310499996
        },
        {
          "id": 1,
          "value": 0.656000257
        },
        {
          "id": 2,
          "value": 0.568999946
        },
        {
          "id": 3,
          "value": 0.355999649
        }
      ],
      "leftModuleId": 49,
      "rightModuleId": 51,
      "pos": [
        24,
        1
      ]
    },
    {
      "id": 49,
      "plugin": "Fundamental",
      "version": "1.3.1",
      "model": "VCF",
      "params": [
        {
          "id": 0,
          "value": 0.529500008
        },
        {
          "id": 1,
          "value": 0.5
        },
        {
          "id": 2,
          "value": 0.0
        },
        {
          "id": 3,
          "value": 1.0
        },
        {
          "id": 4,
          "value": 0.0
        }
      ],
      "leftModuleId": 46,
      "rightModuleId": 48,
      "pos": [
        16,
        1
      ]
    },
    {
      "id": 50,
      "plugin": "Fundamental",
      "version": "1.3.1",
      "model": "Quantizer",
      "params": [],
      "leftModuleId": 47,
      "rightModuleId": 46,
      "data": {
        "enabledNotes": [
          true,
          true,
          false,
          true,
          false,
          true,
          false,
          true,
          true,
          false,
          true,
          false
        ]
      },
      "pos": [
        3,
        1
      ]
    },
    {
      "id": 51,
      "plugin": "Fundamental",
      "version": "1.3.1",
      "model": "8vert",
      "params": [
        {
          "id": 0,
          "value": 0.206999928
        },
        {
          "id": 1,
          "value": 0.0
        },
        {
          "id": 2,
          "value": 0.0
        },
        {
          "id": 3,
          "value": 0.0
        },
        {
          "id": 4,
          "value": 0.0
        },
        {
          "id": 5,
          "value": 0.0
        },
        {
          "id": 6,
          "value": 0.0
        },
        {
          "id": 7,
          "value": 0.0
        }
      ],
      "leftModuleId": 48,
      "rightModuleId": 56,
      "pos": [
        32,
        1
      ]
    },
    {
      "id": 53,
      "plugin": "Fundamental",
      "version": "1.3.1",
      "model": "SEQ3",
      "params": [
        {
          "id": 0,
          "value": 2.0
        },
        {
          "id": 1,
          "value": 0.0
        },
        {
          "id": 2,
          "value": 0.0
        },
        {
          "id": 3,
          "value": 8.0
        },
        {
          "id": 4,
          "value": 0.0
        },
        {
          "id": 5,
          "value": 0.0
        },
        {
          "id": 6,
          "value": 0.0
        },
        {
          "id": 7,
          "value": 0.0
        },
        {
          "id": 8,
          "value": 0.0
        },
        {
          "id": 9,
          "value": 0.0
        },
        {
          "id": 10,
          "value": 0.0
        },
        {
          "id": 11,
          "value": 0.0
        },
        {
          "id": 12,
          "value": 0.0
        },
        {
          "id": 13,
          "value": 0.0
        },
        {
          "id": 14,
          "value": 0.0
        },
        {
          "id": 15,
          "value": 0.0
        },
        {
          "id": 16,
          "value": 0.0
        },
        {
          "id": 17,
          "value": 0.0
        },
        {
          "id": 18,
          "value": 0.0
        },
        {
          "id": 19,
          "value": 0.0
        },
        {
          "id": 20,
          "value": 0.0
        },
        {
          "id": 21,
          "value": 0.0
        },
        {
          "id": 22,
          "value": 0.0
        },
        {
          "id": 23,
          "value": 0.0
        },
        {
          "id": 24,
          "value": 0.0
        },
        {
          "id": 25,
          "value": 0.0
        },
        {
          "id": 26,
          "value": 0.0
        },
        {
          "id": 27,
          "value": 0.0
        },
        {
          "id": 28,
          "value": 0.0
        },
        {
          "id": 29,
          "value": 0.0
        },
        {
          "id": 30,
          "value": 0.0
        },
        {
          "id": 31,
          "value": 0.0
        },
        {
          "id": 32,
          "value": 0.0
        },
        {
          "id": 33,
          "value": 0.0
        },
        {
          "id": 34,
          "value": 0.0
        },
        {
          "id": 35,
          "value": 0.0
        }
      ],
      "leftModuleId": 56,
      "rightModuleId": 54,
      "data": {
        "running": true,
        "gates": [
          1,
          0,
          0,
          1,
          0,
          0,
          1,
          0
        ]
      },
      "pos": [
        43,
        1
      ]
    },
    {
      "id": 54,
      "plugin": "Fundamental",
      "version": "1.3.1",
      "model": "SEQ3",
      "params": [
        {
          "id": 0,
          "value": 2.0
        },
        {
          "id": 1,
          "value": 0.0
        },
        {
          "id": 2,
          "value": 0.0
        },
        {
          "id": 3,
          "value": 8.0
        },
        {
          "id": 4,
          "value": 0.0
        },
        {
          "id": 5,
          "value": 0.0
        },
        {
          "id": 6,
          "value": 0.0
        },
        {
          "id": 7,
          "value": 0.0
        },
        {
          "id": 8,
          "value": 0.0
        },
        {
          "id": 9,
          "value": 0.0
        },
        {
          "id": 10,
          "value": 0.0
        },
        {
          "id": 11,
          "value": 0.0
        },
        {
          "id": 12,
          "value": 0.0
        },
        {
          "id": 13,
          "value": 0.0
        },
        {
          "id": 14,
          "value": 0.0
        },
        {
          "id": 15,
          "value": 0.0
        },
        {
          "id": 16,
          "value": 0.0
        },
        {
          "id": 17,
          "value": 0.0
        },
        {
          "id": 18,
          "value": 0.0
        },
        {
          "id": 19,
          "value": 0.0
        },
        {
          "id": 20,
          "value": 0.0
        },
        {
          "id": 21,
          "value": 0.0
        },
        {
          "id": 22,
          "value": 0.0
        },
        {
          "id": 23,
          "value": 0.0
        },
        {
          "id": 24,
          "value": 0.0
        },
        {
          "id": 25,
          "value": 0.0
        },
        {
          "id": 26,
          "value": 0.0
        },
        {
          "id": 27,
          "value": 0.0
        },
        {
          "id": 28,
          "value": 0.0
        },
        {
          "id": 29,
          "value": 0.0
        },
        {
          "id": 30,
          "value": 0.0
        },
        {
          "id": 31,
          "value": 0.0
        },
        {
          "id": 32,
          "value": 0.0
        },
        {
          "id": 33,
          "value": 0.0
        },
        {
          "id": 34,
          "value": 0.0
        },
        {
          "id": 35,
          "value": 0.0
        }
      ],
      "leftModuleId": 53,
      "data": {
        "running": true,
        "gates": [
          0,
          0,
          1,
          0,
          0,
          1,
          0,
          0
        ]
      },
      "pos": [
        65,
        1
      ]
    },
    {
      "id": 56,
      "plugin": "Fundamental",
      "version": "1.3.1",
      "model": "SequentialSwitch2",
      "params": [
        {
          "id": 0,
          "value": 2.0
        }
      ],
      "leftModuleId": 51,
      "rightModuleId": 53,
      "pos": [
        40,
        1
      ]
    }
  ],
  "cables": [
    {
      "id": 70,
      "outputModuleId": 37,
      "outputId": 0,
      "inputModuleId": 38,
      "inputId": 0,
      "color": "#c9b70e"
    },
    {
      "id": 86,
      "outputModuleId": 37,
      "outputId": 1,
      "inputModuleId": 43,
      "inputId": 4,
      "color": "#0986ad"
    },
    {
      "id": 87,
      "outputModuleId": 41,
      "outputId": 0,
      "inputModuleId": 39,
      "inputId": 0,
      "color": "#0c8e15"
    },
    {
      "id": 88,
      "outputModuleId": 41,
      "outputId": 0,
      "inputModuleId": 42,
      "inputId": 0,
      "color": "#c91847"
    },
    {
      "id": 89,
      "outputModuleId": 41,
      "outputId": 0,
      "inputModuleId": 42,
      "inputId": 1,
      "color": "#0986ad"
    },
    {
      "id": 92,
      "outputModuleId": 43,
      "outputId": 0,
      "inputModuleId": 41,
      "inputId": 5,
      "color": "#c91847"
    },
    {
      "id": 103,
      "outputModuleId": 37,
      "outputId": 6,
      "inputModuleId": 43,
      "inputId": 5,
      "color": "#c91847"
    },
    {
      "id": 91,
      "outputModuleId": 40,
      "outputId": 0,
      "inputModuleId": 41,
      "inputId": 1,
      "color": "#0c8e15"
    },
    {
      "id": 72,
      "outputModuleId": 38,
      "outputId": 2,
      "inputModuleId": 40,
      "inputId": 3,
      "color": "#c91847"
    },
    {
      "id": 104,
      "outputModuleId": 37,
      "outputId": 0,
      "inputModuleId": 44,
      "inputId": 0,
      "color": "#c91847"
    },
    {
      "id": 108,
      "outputModuleId": 37,
      "outputId": 1,
      "inputModuleId": 45,
      "inputId": 0,
      "color": "#0c8e15"
    },
    {
      "id": 111,
      "outputModuleId": 49,
      "outputId": 0,
      "inputModuleId": 41,
      "inputId": 2,
      "color": "#c91847"
    },
    {
      "id": 105,
      "outputModuleId": 44,
      "outputId": 0,
      "inputModuleId": 40,
      "inputId": 0,
      "color": "#0986ad"
    },
    {
      "id": 114,
      "outputModuleId": 48,
      "outputId": 0,
      "inputModuleId": 41,
      "inputId": 6,
      "color": "#0c8e15"
    },
    {
      "id": 117,
      "outputModuleId": 37,
      "outputId": 0,
      "inputModuleId": 45,
      "inputId": 1,
      "color": "#c9b70e"
    },
    {
      "id": 115,
      "outputModuleId": 47,
      "outputId": 0,
      "inputModuleId": 50,
      "inputId": 0,
      "color": "#c91847"
    },
    {
      "id": 118,
      "outputModuleId": 50,
      "outputId": 0,
      "inputModuleId": 46,
      "inputId": 0,
      "color": "#0c8e15"
    },
    {
      "id": 119,
      "outputModuleId": 51,
      "outputId": 0,
      "inputModuleId": 47,
      "inputId": 0,
      "color": "#c91847"
    },
    {
      "id": 110,
      "outputModuleId": 45,
      "outputId": 2,
      "inputModuleId": 51,
      "inputId": 0,
      "color": "#0986ad"
    },
    {
      "id": 106,
      "outputModuleId": 46,
      "outputId": 2,
      "inputModuleId": 49,
      "inputId": 3,
      "color": "#c9b70e"
    },
    {
      "id": 124,
      "outputModuleId": 44,
      "outputId": 0,
      "inputModuleId": 49,
      "inputId": 0,
      "color": "#0c8e15"
    },
    {
      "id": 128,
      "outputModuleId": 54,
      "outputId": 0,
      "inputModuleId": 56,
      "inputId": 3,
      "color": "#0c8e15"
    },
    {
      "id": 130,
      "outputModuleId": 56,
      "outputId": 0,
      "inputModuleId": 48,
      "inputId": 4,
      "color": "#0986ad"
    },
    {
      "id": 127,
      "outputModuleId": 53,
      "outputId": 0,
      "inputModuleId": 56,
      "inputId": 2,
      "color": "#c9b70e"
    },
    {
      "id": 132,
      "outputModuleId": 53,
      "outputId": 4,
      "inputModuleId": 56,
      "inputId": 0,
      "color": "#0c8e15"
    }
  ]
}