{
  "version": "1.1.6",
  "modules": [
    {
      "id": 1,
      "plugin": "Core",
      "version": "1.1.6",
      "model": "AudioInterface",
      "params": [],
      "leftModuleId": 2,
      "data": {
        "audio": {
          "driver": 7,
          "deviceName": "MOTU M Series",
          "offset": 0,
          "maxChannels": 8,
          "sampleRate": 44100,
          "blockSize": 256
        }
      },
      "pos": [
        51,
        0
      ]
    },
    {
      "id": 2,
      "plugin": "Fundamental",
      "version": "1.3.1",
      "model": "VCMixer",
      "params": [
        {
          "id": 0,
          "value": 1.0
        },
        {
          "id": 1,
          "value": 0.879707634
        },
        {
          "id": 2,
          "value": 0.879707634
        },
        {
          "id": 3,
          "value": 1.0
        },
        {
          "id": 4,
          "value": 1.0
        }
      ],
      "leftModuleId": 7,
      "rightModuleId": 1,
      "pos": [
        41,
        0
      ]
    },
    {
      "id": 3,
      "plugin": "Fundamental",
      "version": "1.3.1",
      "model": "VCO",
      "params": [
        {
          "id": 0,
          "value": 1.0
        },
        {
          "id": 1,
          "value": 1.0
        },
        {
          "id": 2,
          "value": -6.37795258
        },
        {
          "id": 3,
          "value": 0.0
        },
        {
          "id": 4,
          "value": 0.0
        },
        {
          "id": 5,
          "value": 0.5
        },
        {
          "id": 6,
          "value": 0.0
        }
      ],
      "leftModuleId": 5,
      "rightModuleId": 57,
      "pos": [
        8,
        0
      ]
    },
    {
      "id": 5,
      "plugin": "Core",
      "version": "1.1.6",
      "model": "MIDIToCVInterface",
      "params": [],
      "rightModuleId": 3,
      "data": {
        "channels": 1,
        "polyMode": 0,
        "clockDivision": 24,
        "lastPitch": 8192,
        "lastMod": 0,
        "midi": {
          "driver": 4,
          "deviceName": "Arturia KeyStep 32 1",
          "channel": -1
        }
      },
      "pos": [
        0,
        0
      ]
    },
    {
      "id": 7,
      "plugin": "Fundamental",
      "version": "1.3.1",
      "model": "Scope",
      "params": [
        {
          "id": 0,
          "value": 0.0
        },
        {
          "id": 1,
          "value": 0.0
        },
        {
          "id": 2,
          "value": 0.0
        },
        {
          "id": 3,
          "value": 0.0
        },
        {
          "id": 4,
          "value": 14.0
        },
        {
          "id": 5,
          "value": 0.0
        },
        {
          "id": 6,
          "value": 0.0
        },
        {
          "id": 7,
          "value": 0.0
        }
      ],
      "leftModuleId": 57,
      "rightModuleId": 2,
      "data": {
        "lissajous": 0,
        "external": 0
      },
      "pos": [
        28,
        0
      ]
    },
    {
      "id": 57,
      "plugin": "Fundamental",
      "version": "1.3.1",
      "model": "VCO",
      "params": [
        {
          "id": 0,
          "value": 1.0
        },
        {
          "id": 1,
          "value": 1.0
        },
        {
          "id": 2,
          "value": 11.4803162
        },
        {
          "id": 3,
          "value": 0.0
        },
        {
          "id": 4,
          "value": 0.0
        },
        {
          "id": 5,
          "value": 0.5
        },
        {
          "id": 6,
          "value": 0.0
        }
      ],
      "leftModuleId": 3,
      "rightModuleId": 7,
      "pos": [
        18,
        0
      ]
    },
    {
      "id": 60,
      "plugin": "Core",
      "version": "1.1.6",
      "model": "MIDI-Map",
      "params": [],
      "data": {
        "maps": [
          {
            "cc": 16,
            "moduleId": 3,
            "paramId": 2
          },
          {
            "cc": 16,
            "moduleId": -1,
            "paramId": 0
          },
          {
            "cc": 20,
            "moduleId": 57,
            "paramId": 2
          },
          {
            "cc": 20,
            "moduleId": -1,
            "paramId": 0
          },
          {
            "cc": 19,
            "moduleId": 2,
            "paramId": 1
          },
          {
            "cc": 19,
            "moduleId": -1,
            "paramId": 0
          },
          {
            "cc": 23,
            "moduleId": 2,
            "paramId": 2
          },
          {
            "cc": 20,
            "moduleId": -1,
            "paramId": 0
          },
          {
            "cc": -1,
            "moduleId": -1,
            "paramId": 0
          }
        ],
        "midi": {
          "driver": 4,
          "deviceName": "MIDI Mix 2",
          "channel": -1
        }
      },
      "pos": [
        0,
        1
      ]
    }
  ],
  "cables": [
    {
      "id": 133,
      "outputModuleId": 5,
      "outputId": 0,
      "inputModuleId": 3,
      "inputId": 0,
      "color": "#c91847"
    },
    {
      "id": 135,
      "outputModuleId": 2,
      "outputId": 0,
      "inputModuleId": 1,
      "inputId": 0,
      "color": "#0986ad"
    },
    {
      "id": 136,
      "outputModuleId": 2,
      "outputId": 0,
      "inputModuleId": 1,
      "inputId": 1,
      "color": "#c9b70e"
    },
    {
      "id": 143,
      "outputModuleId": 3,
      "outputId": 0,
      "inputModuleId": 2,
      "inputId": 1,
      "color": "#0986ad"
    },
    {
      "id": 144,
      "outputModuleId": 57,
      "outputId": 0,
      "inputModuleId": 2,
      "inputId": 2,
      "color": "#c9b70e"
    },
    {
      "id": 148,
      "outputModuleId": 5,
      "outputId": 0,
      "inputModuleId": 57,
      "inputId": 0,
      "color": "#c9b70e"
    },
    {
      "id": 149,
      "outputModuleId": 2,
      "outputId": 0,
      "inputModuleId": 7,
      "inputId": 0,
      "color": "#0c8e15"
    }
  ]
}